<?xml version="1.0" encoding="utf-8"?>
<!-- Generator: Adobe Illustrator 24.2.3, SVG Export Plug-In . SVG Version: 6.00 Build 0)  -->
<svg version="1.1" id="Layer_1" xmlns="http://www.w3.org/2000/svg" xmlns:xlink="http://www.w3.org/1999/xlink" x="0px" y="0px"
	 viewBox="0 0 419.53 297.64" style="enable-background:new 0 0 419.53 297.64;" xml:space="preserve">
<style type="text/css">
	.st0{fill:#282626;}
	.st1{fill:#0F3A10;}
	.st2{fill:#50EF50;}
	.st3{fill:#021C03;}
	.st4{fill:#6B3505;}
	.st5{fill:#2B1604;}
	.st6{fill:#6B3505;stroke:#2B1604;stroke-miterlimit:10;}
</style>
<g>
	<polygon class="st0" points="138.17,167.15 124.24,189.65 152.09,189.65 	"/>
	<g>
		<path class="st0" d="M179.69,107.99l-84.32,0.52c-4.14,0.03-7.47,3.4-7.45,7.54l0.3,48.46c0.03,4.14,3.4,7.47,7.54,7.45
			l84.32-0.52c4.14-0.03,7.47-3.4,7.45-7.54l-0.3-48.46C187.2,111.29,183.82,107.96,179.69,107.99z M97.93,158.21l-0.22-35.99
			c-0.03-4.14,3.31-7.51,7.45-7.54l64.81-0.4c4.14-0.03,7.51,3.31,7.54,7.45l0.22,36c0.03,4.14-3.31,7.51-7.45,7.54l-64.81,0.4
			C101.33,165.68,97.96,162.35,97.93,158.21z"/>
	</g>
	<g>
		<g>
			<polygon class="st1" points="118.66,124.61 142.76,119.6 148.47,146.58 124.37,151.6 			"/>
			<path d="M142.38,120.19l5.5,26l-23.12,4.81l-5.5-26L142.38,120.19 M143.15,119l-25.08,5.22l5.91,27.96l25.08-5.22L143.15,119
				L143.15,119z"/>
		</g>
		<g>
			
				<rect x="128.68" y="127.15" transform="matrix(0.9858 -0.1677 0.1677 0.9858 -21.7703 25.7358)" class="st2" width="25.62" height="29.23"/>
		</g>
		<g>
			<polygon class="st2" points="123.28,152.43 118.53,125.54 126.85,129.9 131.75,157.46 			"/>
			<path class="st3" d="M119.2,126.46l7.2,3.77l4.67,26.24l-7.33-4.35L119.2,126.46 M117.86,124.63l4.97,28.12l9.61,5.7l-5.14-28.87
				L117.86,124.63L117.86,124.63z"/>
		</g>
		<g>
			<g>
				<polygon class="st4" points="121,125.92 141.01,121.48 147.47,125.24 126.43,129.15 				"/>
				<path class="st5" d="M140.92,122.01l5.13,2.98l-19.53,3.63l-4.18-2.49L140.92,122.01 M141.09,120.95l-21.43,4.76l6.68,3.97
					l22.55-4.19L141.09,120.95L141.09,120.95z"/>
			</g>
			<line class="st6" x1="120.36" y1="125.99" x2="142.55" y2="122.01"/>
			<line class="st6" x1="122.63" y1="127.2" x2="144.83" y2="123.22"/>
			<line class="st6" x1="123.94" y1="128.42" x2="146.13" y2="124.44"/>
		</g>
		<g>
			<g>
				<g>
					<path class="st6" d="M135.67,147.73l-0.11-0.62l1.82-0.75c0.12-0.05,0.22-0.12,0.3-0.2c0.08-0.08,0.11-0.18,0.09-0.3
						l-1.65-9.03c-0.02-0.12-0.08-0.2-0.18-0.24c-0.1-0.04-0.22-0.07-0.36-0.07l-1.97-0.08l-0.11-0.61l7.34-1.34l0.11,0.61
						l-1.83,0.77c-0.13,0.05-0.23,0.12-0.31,0.2c-0.08,0.08-0.11,0.18-0.09,0.29l1.73,9.46l6.35-1.16c0.14-0.03,0.25-0.08,0.34-0.16
						c0.09-0.08,0.13-0.18,0.14-0.29l0.1-2.54l1.49-0.27l0.69,3.8L135.67,147.73z"/>
				</g>
			</g>
		</g>
	</g>
	<g>
		<g>
			<path class="st6" d="M199.8,161.89c-0.67-0.35-1.19-0.84-1.55-1.48c-0.37-0.64-0.55-1.38-0.55-2.23v-3.12
				c0-0.84,0.18-1.59,0.55-2.23c0.37-0.64,0.88-1.14,1.55-1.49c0.67-0.35,1.44-0.53,2.32-0.53c0.73,0,1.4,0.14,2.01,0.42
				c0.61,0.28,1.13,0.67,1.54,1.18c0.41,0.51,0.69,1.1,0.84,1.77h-1.83c-0.11-0.35-0.3-0.67-0.56-0.95
				c-0.26-0.28-0.56-0.49-0.92-0.64c-0.35-0.15-0.71-0.23-1.08-0.23c-0.52,0-0.97,0.11-1.37,0.34c-0.39,0.22-0.69,0.54-0.91,0.94
				c-0.22,0.4-0.32,0.87-0.32,1.41v3.12c0,0.53,0.11,1,0.32,1.41s0.52,0.72,0.91,0.94c0.39,0.22,0.85,0.33,1.37,0.33
				c0.38,0,0.74-0.07,1.09-0.21c0.35-0.14,0.65-0.35,0.91-0.63c0.26-0.28,0.44-0.6,0.56-0.98h1.83c-0.15,0.67-0.43,1.26-0.84,1.77
				c-0.41,0.51-0.93,0.91-1.54,1.18c-0.61,0.28-1.28,0.42-2,0.42C201.24,162.41,200.47,162.24,199.8,161.89z"/>
			<path class="st6" d="M211.13,162.25c-0.55-0.1-1.06-0.26-1.54-0.47c-0.48-0.21-0.92-0.47-1.33-0.78l1.11-1.22
				c0.48,0.38,1.02,0.66,1.6,0.84c0.58,0.19,1.22,0.28,1.9,0.28c0.92,0,1.64-0.15,2.14-0.46s0.76-0.74,0.76-1.29v-0.01
				c0-0.4-0.12-0.71-0.35-0.94c-0.23-0.23-0.53-0.4-0.89-0.52c-0.37-0.11-0.84-0.21-1.41-0.31c-0.02,0-0.04-0.01-0.06-0.01
				s-0.04,0-0.06-0.01l-0.13-0.02c-0.85-0.13-1.54-0.28-2.08-0.44c-0.53-0.16-0.99-0.46-1.37-0.9c-0.38-0.43-0.57-1.05-0.57-1.86
				v-0.01c0-0.7,0.18-1.3,0.53-1.8c0.35-0.5,0.87-0.88,1.54-1.14c0.68-0.26,1.49-0.39,2.44-0.39c0.46,0,0.9,0.04,1.34,0.13
				c0.44,0.09,0.88,0.22,1.3,0.39c0.43,0.17,0.85,0.39,1.26,0.66l-1.02,1.27c-0.48-0.32-0.97-0.56-1.45-0.71
				c-0.48-0.16-0.96-0.24-1.45-0.24c-0.87,0-1.54,0.16-2.03,0.46c-0.48,0.31-0.72,0.75-0.72,1.32v0.01c0,0.39,0.12,0.7,0.37,0.92
				c0.25,0.22,0.56,0.39,0.93,0.5c0.37,0.11,0.88,0.22,1.54,0.33c0.02,0.01,0.04,0.01,0.07,0.01c0.02,0,0.04,0.01,0.07,0.01
				c0.03,0.01,0.06,0.01,0.1,0.02c0.04,0.01,0.07,0.01,0.1,0.02c0.77,0.14,1.41,0.31,1.93,0.5c0.52,0.19,0.95,0.5,1.3,0.93
				c0.35,0.43,0.52,1.02,0.52,1.76v0.02c0,0.69-0.18,1.29-0.55,1.78c-0.37,0.49-0.9,0.87-1.6,1.13s-1.54,0.39-2.53,0.39
				C212.26,162.41,211.68,162.36,211.13,162.25z"/>
			<path class="st6" d="M226.76,161.89c-0.68-0.35-1.2-0.84-1.57-1.47c-0.37-0.63-0.56-1.37-0.56-2.2V155c0-0.83,0.19-1.57,0.56-2.2
				c0.37-0.63,0.89-1.12,1.57-1.47c0.68-0.35,1.46-0.52,2.35-0.52c0.89,0,1.67,0.17,2.34,0.52c0.68,0.35,1.2,0.84,1.57,1.47
				c0.37,0.63,0.56,1.37,0.56,2.2v3.22c0,0.83-0.19,1.57-0.56,2.2c-0.37,0.63-0.89,1.12-1.57,1.47c-0.68,0.35-1.46,0.52-2.34,0.52
				C228.22,162.41,227.44,162.24,226.76,161.89z M230.49,160.52c0.4-0.21,0.71-0.51,0.93-0.9c0.22-0.39,0.33-0.84,0.33-1.35v-3.33
				c0-0.51-0.11-0.96-0.33-1.35c-0.22-0.39-0.53-0.69-0.93-0.9s-0.86-0.32-1.39-0.32c-0.53,0-0.99,0.11-1.39,0.32
				s-0.71,0.51-0.93,0.9c-0.22,0.39-0.33,0.84-0.33,1.35v3.33c0,0.51,0.11,0.96,0.33,1.35c0.22,0.39,0.53,0.69,0.93,0.9
				s0.86,0.32,1.39,0.32C229.63,160.84,230.09,160.73,230.49,160.52z"/>
			<path class="st6" d="M236.29,154.18h1.79v8.11h-1.79V154.18z M241.8,157.38c0-0.57-0.17-1.02-0.5-1.33
				c-0.33-0.31-0.8-0.47-1.4-0.47c-0.58,0-1.03,0.14-1.35,0.41c-0.32,0.28-0.48,0.66-0.48,1.16l-0.18-1.56
				c0.28-0.49,0.65-0.87,1.1-1.13c0.45-0.27,0.95-0.4,1.5-0.4c0.99,0,1.75,0.29,2.29,0.86c0.54,0.58,0.81,1.39,0.81,2.44v4.92h-1.79
				V157.38z"/>
			<path class="st6" d="M248.09,160.2c0,0.2,0.05,0.35,0.14,0.46c0.1,0.11,0.23,0.16,0.41,0.16h0.84v1.52h-1.05
				c-0.68,0-1.2-0.19-1.57-0.56c-0.37-0.38-0.56-0.9-0.56-1.59v-9.25h1.79V160.2z"/>
			<path class="st6" d="M251.49,150.93h1.79v1.59h-1.79V150.93z M251.49,154.18h1.79v8.11h-1.79V154.18z"/>
			<path class="st6" d="M255.99,154.18h1.79v8.11h-1.79V154.18z M261.5,157.38c0-0.57-0.17-1.02-0.5-1.33
				c-0.33-0.31-0.8-0.47-1.4-0.47c-0.58,0-1.03,0.14-1.35,0.41c-0.32,0.28-0.48,0.66-0.48,1.16l-0.18-1.56
				c0.28-0.49,0.65-0.87,1.1-1.13c0.45-0.27,0.95-0.4,1.5-0.4c0.99,0,1.75,0.29,2.29,0.86c0.54,0.58,0.81,1.39,0.81,2.44v4.92h-1.79
				V157.38z"/>
			<path class="st6" d="M267.57,161.99c-0.59-0.28-1.05-0.69-1.36-1.24c-0.31-0.54-0.47-1.2-0.47-1.97v-0.91
				c0-0.8,0.15-1.49,0.45-2.05c0.3-0.57,0.74-1,1.31-1.3c0.57-0.3,1.26-0.45,2.07-0.45c0.76,0,1.41,0.17,1.94,0.51
				c0.54,0.34,0.95,0.83,1.23,1.47s0.42,1.41,0.42,2.3v0.53h-6.13v-1.28h4.43c-0.05-0.66-0.24-1.18-0.57-1.54
				c-0.33-0.37-0.77-0.55-1.33-0.55c-0.68,0-1.2,0.2-1.57,0.59c-0.37,0.4-0.56,0.96-0.56,1.68v1.03c0,0.67,0.2,1.19,0.59,1.55
				s0.96,0.54,1.69,0.54c0.36,0,0.72-0.06,1.08-0.2c0.36-0.13,0.67-0.31,0.95-0.55l1.17,1.05c-0.45,0.39-0.95,0.68-1.51,0.89
				c-0.56,0.21-1.12,0.32-1.69,0.32C268.88,162.41,268.16,162.27,267.57,161.99z"/>
			<path class="st6" d="M282.21,160.2c0,0.2,0.05,0.35,0.14,0.46c0.1,0.11,0.23,0.16,0.41,0.16h0.84v1.52h-1.05
				c-0.68,0-1.2-0.19-1.57-0.56c-0.37-0.38-0.56-0.9-0.56-1.59v-9.25h1.79V160.2z"/>
			<path class="st6" d="M285.61,150.93h1.79v1.59h-1.79V150.93z M285.61,154.18h1.79v8.11h-1.79V154.18z"/>
			<path class="st6" d="M290.11,150.93h1.79v11.36h-1.79V150.93z M292.7,162.05c-0.42-0.24-0.73-0.58-0.93-1.03l0.12-1.7
				c0,0.35,0.07,0.65,0.21,0.89c0.14,0.25,0.34,0.43,0.61,0.56c0.27,0.13,0.59,0.2,0.97,0.2c0.59,0,1.05-0.16,1.37-0.48
				c0.32-0.32,0.49-0.77,0.49-1.36v-1.76c0-0.59-0.16-1.05-0.49-1.38c-0.32-0.33-0.78-0.49-1.37-0.49c-0.38,0-0.7,0.06-0.97,0.19
				s-0.47,0.31-0.61,0.55s-0.21,0.53-0.21,0.87l-0.18-1.56c0.27-0.47,0.63-0.84,1.08-1.1s0.94-0.39,1.48-0.39
				c0.64,0,1.19,0.13,1.65,0.39s0.81,0.63,1.05,1.13c0.24,0.5,0.36,1.09,0.36,1.79v1.77c0,0.69-0.12,1.28-0.37,1.77
				c-0.25,0.49-0.6,0.86-1.08,1.12c-0.47,0.26-1.04,0.39-1.7,0.39C293.61,162.41,293.12,162.29,292.7,162.05z"/>
			<path class="st6" d="M299.86,154.18h1.79v8.11h-1.79V154.18z M304.26,155.71c-0.24-0.09-0.52-0.13-0.83-0.13
				c-0.57,0-1,0.14-1.32,0.42c-0.31,0.28-0.47,0.67-0.47,1.16l-0.18-1.56c0.28-0.48,0.64-0.86,1.08-1.13
				c0.44-0.27,0.93-0.4,1.47-0.4c0.41,0,0.79,0.05,1.12,0.16c0.34,0.11,0.63,0.26,0.88,0.47l-1.16,1.41
				C304.7,155.93,304.5,155.8,304.26,155.71z"/>
			<path class="st6" d="M307.9,161.79c-0.55-0.41-0.83-1.04-0.83-1.89c0-0.8,0.25-1.4,0.76-1.8c0.51-0.4,1.28-0.6,2.3-0.6h2.58
				l0.12,1.28h-2.7c-0.47,0-0.82,0.09-1.05,0.28c-0.23,0.19-0.35,0.47-0.35,0.85c0,0.41,0.15,0.72,0.46,0.91
				c0.31,0.2,0.77,0.3,1.4,0.3c0.68,0,1.19-0.06,1.53-0.2c0.34-0.13,0.5-0.33,0.5-0.61l0.18,1.14c-0.16,0.22-0.35,0.4-0.58,0.54
				s-0.5,0.25-0.8,0.32c-0.3,0.07-0.65,0.11-1.02,0.11C309.29,162.41,308.46,162.2,307.9,161.79z M312.64,157.15
				c0-0.53-0.16-0.94-0.48-1.24c-0.32-0.29-0.77-0.44-1.35-0.44c-0.36,0-0.72,0.05-1.06,0.15c-0.35,0.1-0.66,0.24-0.92,0.41
				l-1.3-0.8c0.34-0.37,0.8-0.66,1.36-0.86c0.56-0.21,1.19-0.31,1.88-0.31c0.75,0,1.4,0.12,1.93,0.36c0.54,0.24,0.95,0.58,1.23,1.03
				c0.28,0.45,0.42,0.99,0.42,1.63v5.21h-1.7V157.15z"/>
			<path class="st6" d="M317.05,154.18h1.79v8.11h-1.79V154.18z M321.45,155.71c-0.24-0.09-0.52-0.13-0.83-0.13
				c-0.57,0-1,0.14-1.32,0.42c-0.31,0.28-0.47,0.67-0.47,1.16l-0.18-1.56c0.28-0.48,0.64-0.86,1.08-1.13
				c0.44-0.27,0.93-0.4,1.47-0.4c0.41,0,0.79,0.05,1.12,0.16c0.34,0.11,0.63,0.26,0.88,0.47l-1.16,1.41
				C321.89,155.93,321.69,155.8,321.45,155.71z"/>
			<path class="st6" d="M323.73,154.18h1.82l2.79,7.05l-0.99,1.73L323.73,154.18z M331.78,154.18l-3.87,10.01
				c-0.14,0.37-0.32,0.66-0.55,0.88s-0.51,0.37-0.84,0.46c-0.33,0.09-0.74,0.14-1.23,0.14h-0.36v-1.53h0.36
				c0.33,0,0.6-0.06,0.79-0.18s0.37-0.33,0.51-0.62l3.36-9.16H331.78z"/>
		</g>
	</g>
</g>
</svg>
